<?xml version="1.0" standalone="no"?>
<!DOCTYPE svg PUBLIC "-//W3C//DTD SVG 20010904//EN"
 "http://www.w3.org/TR/2001/REC-SVG-20010904/DTD/svg10.dtd">
<svg version="1.0" xmlns="http://www.w3.org/2000/svg"
 width="192.000000pt" height="192.000000pt" viewBox="0 0 192.000000 192.000000"
 preserveAspectRatio="xMidYMid meet">

<g transform="translate(0.000000,192.000000) scale(0.100000,-0.100000)"
fill="#000000" stroke="none">
<path d="M0 960 l0 -960 960 0 960 0 0 960 0 960 -960 0 -960 0 0 -960z m1398
614 c12 -8 22 -22 22 -30 0 -18 9 -18 29 0 9 8 29 18 44 21 23 6 29 4 34 -14
3 -11 12 -21 19 -21 23 0 16 -49 -11 -75 -13 -14 -19 -25 -13 -25 19 0 58 -42
58 -62 0 -10 -4 -18 -10 -18 -5 0 -10 -9 -10 -20 0 -24 -35 -35 -70 -22 -22 8
-27 6 -40 -21 -17 -35 -50 -59 -57 -41 -2 7 -12 10 -22 7 -25 -6 -44 21 -39
60 3 31 2 33 -23 29 -34 -5 -71 15 -67 36 1 9 -1 23 -6 31 -12 18 36 61 67 61
16 0 18 3 9 12 -7 7 -12 27 -12 44 0 26 6 36 28 47 36 20 44 20 70 1z m-596
-394 c98 -28 154 -131 116 -215 -9 -20 -18 -25 -50 -25 -41 0 -45 5 -23 34 32
42 11 108 -42 135 -89 46 -184 -64 -122 -143 l20 -26 -45 0 c-44 0 -46 1 -57
39 -24 81 22 166 106 196 49 17 51 17 97 5z m-404 -52 l3 -48 44 0 44 0 3 48
c3 43 5 47 31 50 l27 3 0 -120 0 -121 -30 0 c-29 0 -30 2 -30 45 l0 45 -45 0
-45 0 0 -45 c0 -43 -1 -45 -30 -45 l-30 0 0 113 c0 63 3 117 7 121 4 4 16 6
28 4 16 -2 21 -12 23 -50z m652 -8 c22 -33 43 -60 45 -60 2 0 23 27 45 60 27
39 48 60 60 60 19 0 20 -7 20 -120 l0 -120 -30 0 c-30 0 -30 1 -30 52 l0 53
-25 -38 c-14 -20 -32 -37 -40 -37 -7 0 -24 17 -37 38 l-23 37 -3 -52 c-3 -51
-4 -53 -33 -53 l-29 0 0 120 c0 113 1 120 20 120 12 0 33 -21 60 -60z m398 28
c3 -28 3 -28 -57 -28 -54 0 -61 -2 -61 -20 0 -17 7 -20 50 -20 47 0 50 -2 50
-25 0 -23 -3 -25 -50 -25 -43 0 -50 -3 -50 -20 0 -18 7 -20 60 -20 57 0 60 -1
60 -25 0 -25 -1 -25 -90 -25 l-90 0 0 120 0 121 88 -3 c87 -3 87 -3 90 -30z
m204 22 c6 0 8 -15 6 -35 -3 -27 0 -35 12 -35 24 0 38 -18 32 -45 -4 -25 -34
-41 -53 -29 -7 4 -9 0 -5 -12 8 -26 -5 -43 -34 -46 -17 -2 -28 4 -34 19 -8 17
-16 20 -42 16 -28 -5 -32 -2 -38 23 -6 21 -3 31 10 41 14 10 15 16 6 25 -16
16 -15 36 2 54 17 17 42 18 51 3 5 -7 14 -3 27 11 11 12 27 19 35 16 8 -3 19
-6 25 -6z m-847 -190 c-20 -22 -64 -27 -83 -8 -22 22 -12 28 45 28 55 0 56 0
38 -20z m-269 -124 c19 -19 34 -39 34 -45 0 -16 -59 -13 -76 4 -20 20 -68 19
-88 -1 -17 -16 -21 -61 -8 -80 15 -23 50 -34 76 -24 14 5 26 14 26 20 0 5 16
10 35 10 44 0 44 -13 1 -56 -30 -30 -40 -34 -86 -34 -46 0 -56 4 -86 34 -30
30 -34 40 -34 86 0 46 4 56 34 86 30 30 40 34 86 34 46 0 56 -4 86 -34z m238
5 c31 -30 35 -82 8 -109 -18 -18 -18 -20 5 -52 30 -45 29 -50 -9 -50 -27 0
-37 7 -56 35 -31 48 -62 48 -62 0 0 -32 -2 -35 -30 -35 l-30 0 0 121 0 121 74
-4 c62 -3 79 -7 100 -27z m246 -1 l0 -30 -60 0 c-46 0 -60 -3 -60 -14 0 -11
15 -16 53 -18 48 -3 52 -5 55 -30 3 -28 2 -28 -52 -28 -43 0 -56 -3 -56 -15 0
-12 13 -15 60 -15 l60 0 0 -30 0 -30 -90 0 -90 0 0 120 0 120 90 0 90 0 0 -30z
m196 14 c85 -41 85 -167 0 -208 -20 -9 -59 -16 -95 -16 l-61 0 0 120 0 120 61
0 c36 0 75 -7 95 -16z m154 -104 l0 -120 -30 0 -30 0 0 120 0 120 30 0 30 0 0
-120z m225 90 c0 -21 -6 -26 -33 -28 l-32 -3 0 -90 0 -89 -30 0 -30 0 0 90 0
90 -35 0 c-32 0 -35 2 -35 30 l0 31 97 -3 c97 -3 97 -3 98 -28z m-1350 -236
c14 -15 25 -33 25 -41 0 -10 9 -7 31 11 45 38 97 34 90 -6 0 -5 8 -8 18 -8 39
0 33 -58 -9 -98 l-22 -20 31 -17 c43 -21 62 -62 38 -80 -9 -7 -17 -22 -17 -33
0 -30 -43 -39 -85 -19 l-32 15 -12 -38 c-6 -21 -18 -43 -26 -50 -13 -11 -20
-8 -45 21 -16 19 -42 59 -56 89 -23 47 -28 71 -32 169 -4 99 -2 113 11 108 9
-3 18 1 21 9 9 22 45 16 71 -12z"/>
<path d="M1400 1469 c0 -5 5 -7 10 -4 6 3 10 8 10 11 0 2 -4 4 -10 4 -5 0 -10
-5 -10 -11z"/>
<path d="M1437 1455 c-7 -17 -42 -21 -52 -5 -3 6 -12 10 -18 10 -7 0 -4 -5 6
-11 24 -14 21 -29 -5 -30 -18 -1 -17 -3 7 -8 20 -4 31 -14 36 -31 l7 -25 1 24
c1 23 2 24 21 6 11 -10 20 -13 20 -8 0 6 -7 13 -15 17 -18 6 -20 37 -3 54 6 6
9 14 6 17 -3 3 -8 -1 -11 -10z"/>
<path d="M1455 1420 c3 -5 8 -10 11 -10 2 0 4 5 4 10 0 6 -5 10 -11 10 -5 0
-7 -4 -4 -10z"/>
<path d="M1370 1379 c0 -5 5 -7 10 -4 6 3 10 8 10 11 0 2 -4 4 -10 4 -5 0 -10
-5 -10 -11z"/>
<path d="M1576 1065 c-4 -13 -2 -14 14 -5 23 13 26 20 6 20 -8 0 -16 -7 -20
-15z"/>
<path d="M660 799 c0 -30 1 -31 32 -25 39 8 53 20 45 40 -4 10 -19 16 -42 16
-33 0 -35 -2 -35 -31z"/>
<path d="M1120 770 l0 -60 34 0 c37 0 66 28 66 62 0 28 -37 58 -70 58 l-30 0
0 -60z"/>
<path d="M247 488 l6 -33 -25 23 c-13 12 -27 19 -31 16 -3 -4 4 -15 16 -25
l22 -18 -27 -1 c-16 0 -28 -5 -28 -10 0 -6 11 -8 25 -4 29 7 32 -2 8 -28 -9
-10 -11 -18 -6 -18 6 0 13 7 17 15 9 24 26 17 26 -10 0 -14 4 -25 9 -25 5 0 8
15 7 33 -1 29 2 32 32 35 17 2 32 7 32 12 0 4 -15 7 -32 6 -30 -1 -33 2 -36
32 -2 17 -7 32 -12 32 -5 0 -7 -15 -3 -32z"/>
<path d="M279 478 c-12 -23 -12 -23 10 -4 23 21 26 26 11 26 -5 0 -15 -10 -21
-22z"/>
<path d="M282 410 c7 -11 16 -20 20 -20 15 0 8 15 -12 28 -19 12 -20 11 -8 -8z"/>
</g>
</svg>
